<svg width="111" height="34" viewBox="0 0 111 34" fill="none" xmlns="http://www.w3.org/2000/svg">
<path d="M24.369 15.3747C24.369 10.7852 20.6128 7.05225 15.997 7.05225C11.3812 7.05225 7.625 10.7862 7.625 15.3747C7.625 19.9631 11.3802 23.6971 15.997 23.6971C20.6138 23.6971 24.369 19.9642 24.369 15.3747Z" fill="#1D1D20"/>
<path d="M32.0174 0.153809H2.74312C1.35775 0.153809 0.425781 1.13869 0.425781 2.3531V31.6627C0.425781 32.8771 1.35775 33.862 2.74312 33.862H32.0174C33.4059 33.862 34.3347 32.8771 34.3347 31.6627V2.3531C34.3347 1.13869 33.4059 0.153809 32.0174 0.153809ZM30.0275 29.4425H5.00483V26.8051C5.00483 26.8051 9.58388 26.6277 12.4197 26.0873L12.6117 26.0476V25.7889C12.4984 25.7607 12.2696 25.6793 12.2696 25.6793C8.0243 24.1571 4.98174 20.1133 4.98174 15.3756C4.98174 9.33698 9.92393 4.4251 15.9975 4.4251C22.0711 4.4251 27.0132 9.33803 27.0132 15.3756C27.0132 19.9537 24.1722 23.8817 20.1504 25.5155C19.3717 25.8828 18.1091 26.1634 17.1855 26.4347V26.8061H30.0254V29.4436L30.0275 29.4425Z" fill="#1D1D20"/>
<path d="M57.1145 7.69358V10.74C55.6903 8.66073 53.3572 7.40771 50.0302 7.40771C44.6042 7.40771 40.9277 11.5183 40.9277 17.2137C40.9277 22.9092 44.6042 27.0198 50.0302 27.0198C53.2953 27.0198 55.663 25.7918 57.1145 23.676V33.6479H60.4016V7.69358H57.1145ZM50.6778 24.2404C46.932 24.2404 44.26 21.2931 44.26 17.2096C44.26 13.1261 46.932 10.1787 50.6778 10.1787C54.4235 10.1787 57.0956 13.1261 57.0956 17.2096C57.0956 21.2931 54.4235 24.2404 50.6778 24.2404Z" fill="#1D1D20"/>
<path d="M106.851 7.69358V10.74C105.427 8.66073 103.094 7.40771 99.7665 7.40771C94.3405 7.40771 90.6641 11.5183 90.6641 17.2137C90.6641 22.9092 94.3405 27.0198 99.7665 27.0198C103.032 27.0198 105.399 25.7918 106.851 23.676V33.6479H110.138V7.69358H106.851ZM100.414 24.2404C96.6684 24.2404 93.9963 21.2931 93.9963 17.2096C93.9963 13.1261 96.6684 10.1787 100.414 10.1787C104.16 10.1787 106.832 13.1261 106.832 17.2096C106.832 21.2931 104.16 24.2404 100.414 24.2404Z" fill="#1D1D20"/>
<path d="M74.0315 7.40597C70.7035 7.40597 68.3714 8.66002 66.9473 10.7383V0.808105H63.6602V26.9878H66.9473V23.6742C68.3987 25.7901 70.7664 27.018 74.0315 27.018C79.4575 27.018 83.134 22.9074 83.134 17.212C83.134 11.5166 79.4575 7.40597 74.0315 7.40597ZM73.384 24.2387C69.6382 24.2387 66.9661 21.2913 66.9661 17.2078C66.9661 13.1243 69.6382 10.177 73.384 10.177C77.1297 10.177 79.8018 13.1243 79.8018 17.2078C79.8018 21.2913 77.1297 24.2387 73.384 24.2387Z" fill="#1D1D20"/>
<path d="M88.6152 7.70654H85.3281V26.9889H88.6152V7.70654Z" fill="#1D1D20"/>
<path d="M86.9716 0.366699C85.4309 0.366699 84.5703 1.37349 84.5703 2.61502C84.5703 3.85656 85.4299 4.86335 86.9716 4.86335C88.5134 4.86335 89.3729 3.85656 89.3729 2.61502C89.3729 1.37349 88.5123 0.366699 86.9716 0.366699Z" fill="#1D1D20"/>
</svg>
